<svg width="101" height="45" viewBox="0 0 101 45" fill="none" xmlns="http://www.w3.org/2000/svg">
<rect width="101" height="45" fill="#E7E7E7"/>
<g id="Logos">
<rect x="-393.75" y="-7.75" width="501.609" height="60.608" rx="2.25" stroke="#9747FF" stroke-width="0.5" stroke-dasharray="5 2.5"/>
<g id="Property 1=sony logo" clip-path="url(#clip0_12_719)">
<path id="Vector" d="M35.7365 13.5C39.574 13.5 42.6423 14.4596 44.9902 16.5929C46.5935 18.045 47.4898 20.1154 47.4648 22.2867C47.4587 23.3575 47.2364 24.416 46.8112 25.3988C46.386 26.3816 45.7666 27.2683 44.9902 28.0058C42.7935 30.0258 39.3723 31.0988 35.736 31.0988C32.1006 31.0988 28.7423 30.0258 26.5077 28.0058C24.8794 26.5538 23.9702 24.4708 23.9952 22.2867C23.9952 20.1283 24.9044 18.0575 26.5077 16.5929C28.5911 14.6992 32.2773 13.5 35.7365 13.5ZM35.749 28.7883C37.6681 28.7883 39.4481 28.1192 40.6981 26.8821C41.9477 25.6325 42.5031 24.13 42.5031 22.2867C42.5031 20.5192 41.8848 18.8658 40.6977 17.6913C39.4735 16.4796 37.6427 15.7975 35.749 15.7975C33.8552 15.7975 32.0248 16.4796 30.7877 17.6913C29.6011 18.8654 28.9823 20.5192 28.9823 22.2871C28.9573 23.9913 29.6011 25.6454 30.7877 26.8825C32.0248 28.1071 33.8427 28.7883 35.749 28.7883ZM15.5748 20.5946C16.2436 20.7713 16.8873 20.9863 17.519 21.2763C18.1022 21.5417 18.6358 21.9047 19.0969 22.3496C19.9177 23.2079 20.3844 24.3567 20.3719 25.5433C20.3801 26.1698 20.2417 26.7895 19.9677 27.3529C19.6937 27.9164 19.2918 28.4079 18.794 28.7883C17.9118 29.4579 16.9088 29.9509 15.8398 30.2404C14.2312 30.7448 12.5511 30.9837 10.8656 30.9475C9.39897 30.9475 8.58772 30.7783 7.4748 30.5467L7.15397 30.48C5.92897 30.2025 4.73022 29.8237 3.58105 29.3188C3.5292 29.2832 3.46719 29.2655 3.40439 29.2683C3.21522 29.2683 3.06355 29.4325 3.06355 29.6217V30.4675H0.614389V24.3067H2.79855C2.81111 24.9307 3.00878 25.5369 3.36647 26.0483C4.25022 27.1346 5.1973 27.5513 6.10605 27.8796C7.63355 28.3846 9.23689 28.6496 10.8402 28.7C13.1427 28.7 14.4886 28.1417 14.7798 28.0208L14.8173 28.0054L14.8431 27.9958C15.0998 27.9017 16.1427 27.5196 16.1427 26.3642C16.1427 25.2213 15.1686 24.9725 14.5302 24.81L14.4386 24.7858C13.7269 24.5942 12.0969 24.4225 10.3148 24.2346L9.67897 24.1679C7.65897 23.9533 5.63897 23.6375 4.6923 23.4354C2.61855 22.9783 1.7998 22.22 1.2923 21.75L1.25814 21.7183C0.51757 20.9285 0.106652 19.8856 0.109389 18.8029C0.109389 16.7321 1.52356 15.4821 3.26564 14.7125C5.12147 13.8792 7.33064 13.5125 9.2623 13.5125C12.6836 13.5254 15.4611 14.6363 16.4581 15.1542C16.8623 15.3688 17.0644 15.1038 17.0644 14.9017V14.2833H19.2611V19.6483H17.2915C17.115 18.8521 16.6854 18.1345 16.0669 17.6029C15.6898 17.3001 15.2735 17.0497 14.8294 16.8583C13.1761 16.1638 11.4086 15.8104 9.61564 15.8354C7.77272 15.8354 6.00522 16.1896 5.12147 16.7325C4.56605 17.0733 4.28814 17.5025 4.28814 18.0075C4.28814 18.7271 4.89397 19.0175 5.1973 19.1058C6.01689 19.3546 7.83397 19.535 9.2473 19.6763C9.55397 19.7067 9.84147 19.7354 10.0956 19.7621C11.459 19.9013 14.3123 20.2792 15.5748 20.5946ZM91.2719 16.4421V14.4475H100.109V16.4042H98.1273C97.4077 16.4042 97.1173 16.5433 96.5744 17.1492L90.6281 23.9408C90.5668 24.0246 90.5397 24.1286 90.5523 24.2317V27.3246C90.5624 27.4684 90.5792 27.6116 90.6027 27.7538C90.6376 27.8451 90.6935 27.9271 90.7658 27.9929C90.8382 28.0587 90.9251 28.1065 91.0194 28.1325C91.1993 28.1576 91.3807 28.1701 91.5623 28.17H93.5823V30.1275H82.864V28.1704H84.7831C84.9646 28.1704 85.1459 28.1578 85.3256 28.1325C85.4206 28.1045 85.5082 28.056 85.5824 27.9905C85.6567 27.925 85.7156 27.8441 85.7552 27.7533C85.7801 27.6158 85.7926 27.4764 85.7927 27.3367V24.2442C85.7927 24.1433 85.7927 24.1433 85.654 23.9792C83.6969 21.7496 81.7359 19.5235 79.771 17.3008C79.4552 16.9725 78.9123 16.4421 78.0794 16.4421H76.1727V14.4854H86.9544V16.4421H85.654C85.3635 16.4421 85.1615 16.7325 85.414 17.0483C85.414 17.0483 89.0373 21.3783 89.0752 21.4288C89.1131 21.4796 89.1385 21.4796 89.189 21.4412C89.2394 21.4037 92.9131 17.0858 92.9385 17.0483C92.9985 16.9678 93.0242 16.8669 93.01 16.7675C92.9958 16.6681 92.9428 16.5784 92.8627 16.5179C92.7878 16.4683 92.7 16.442 92.6102 16.4421H91.2719ZM65.0885 16.4292H67.1085C68.0302 16.4292 68.1944 16.7825 68.2069 17.6413L68.3206 24.1679L57.5644 14.4846H49.876V16.4417H51.5927C52.8302 16.4417 52.9185 17.1233 52.9185 17.7292V26.9533C52.9202 27.4888 52.9223 28.1825 52.161 28.1825H50.0527V30.1271H59.0669V28.17H56.8698C55.9865 28.17 55.9485 27.7658 55.9356 26.9075V19.0675L68.3206 30.1137H71.4769L71.3127 17.6279C71.3252 16.7196 71.3885 16.4163 72.3227 16.4163H74.2919V14.4592H65.0885V16.4292Z" fill="#520DC2"/>
</g>
</g>
<defs>
<clipPath id="clip0_12_719">
<rect width="100" height="45" fill="white" transform="translate(0.109375)"/>
</clipPath>
</defs>
</svg>
